Coordinates
version=1
nRows=24
nColumns=22
inDegrees=yes

Units are S.I. units (second, meters, Newtons, ...)
If the header above contains a line with 'inDegrees', this indicates whether rotational values are in degrees (yes) or radians (no).

endheader
time	pelvis_tilt	pelvis_list	pelvis_rotation	pelvis_tx	pelvis_ty	pelvis_tz	hip_flexion_r	hip_adduction_r	hip_rotation_r	knee_angle_r	ankle_angle_r	subtalar_angle_r	hip_flexion_l	hip_adduction_l	hip_rotation_l	knee_angle_l	ankle_angle_l	subtalar_angle_l	lumbar_extension	lumbar_bending	lumbar_rotation
      6.28000000	     -0.37349849	     -0.55614744	   -115.40683498	      0.65550284	      1.00965510	      0.44656986	     14.11950149	     -0.87068117	     -2.93555823	    -50.54379693	     10.57139106	      2.32815657	      7.64534981	      1.72587806	      3.14906500	    -16.57648171	      9.89642456	      1.55285935	    -12.68982508	     -1.49940071	      2.30370418
      6.29000000	     -0.50254229	     -0.55136565	   -115.98714589	      0.65374340	      1.00981768	      0.45043214	     14.51671234	     -0.82380367	     -3.33745085	    -49.66682780	     10.97115296	      2.23894115	      7.31097923	      1.59301227	      2.60471939	    -16.63561961	     10.18067959	      1.41171708	    -12.80952445	     -1.41553541	      2.14411125
      6.30000000	     -0.62707789	     -0.54396473	   -116.57109510	      0.65189899	      1.00992090	      0.45420055	     14.90278189	     -0.76641996	     -3.71926304	    -48.72692756	     11.32577632	      2.16490790	      6.99353404	      1.46071157	      2.05121562	    -16.71694776	     10.47346963	      1.28212315	    -12.92879476	     -1.34488249	      2.00059769
      6.31000000	     -0.74297767	     -0.53552980	   -117.15418971	      0.64999630	      1.00997062	      0.45789828	     15.27982575	     -0.71658230	     -4.10417875	    -47.73731631	     11.64395052	      2.10065202	      6.69207360	      1.33679840	      1.49925939	    -16.81882894	     10.77229356	      1.16578364	    -13.04771723	     -1.28793344	      1.87222263
      6.32000000	     -0.85403732	     -0.52952016	   -117.73881574	      0.64803915	      1.00998290	      0.46153325	     15.64664490	     -0.67849171	     -4.50471750	    -46.71206540	     11.92269062	      2.03263505	      6.39730580	      1.21941020	      0.94891164	    -16.93380414	     11.07692460	      1.05774248	    -13.16922084	     -1.24223843	      1.76082513
      6.33000000	     -0.96391671	     -0.53417049	   -118.32524061	      0.64604719	      1.00997985	      0.46512262	     15.99479916	     -0.65642466	     -4.92932741	    -45.66036444	     12.15977039	      1.93861607	      6.10076383	      1.11071859	      0.39223571	    -17.06443442	     11.38345975	      0.95059395	    -13.30558519	     -1.20074248	      1.66201538
      6.34000000	     -1.06876842	     -0.53705227	   -118.91332241	      0.64401189	      1.00994436	      0.46867483	     16.34159743	     -0.65178547	     -5.39334342	    -44.59596132	     12.36855969	      1.82209331	      5.80610439	      1.00920946	     -0.14768295	    -17.19354321	     11.69916801	      0.85455055	    -13.43630436	     -1.16333351	      1.57975782
      6.35000000	     -1.17812035	     -0.55392250	   -119.50407569	      0.64194271	      1.00991644	      0.47219210	     16.66843711	     -0.65988059	     -5.89689176	    -43.52506546	     12.52921611	      1.65162901	      5.49745130	      0.91383096	     -0.69296400	    -17.32871306	     12.00942646	      0.75853535	    -13.58464940	     -1.12339633	      1.50742180
      6.36000000	     -1.28988371	     -0.57757455	   -120.09712996	      0.63985826	      1.00988971	      0.47566854	     16.98425234	     -0.67825184	     -6.44262879	    -42.45195798	     12.65027487	      1.43095831	      5.18007567	      0.82530220	     -1.23164295	    -17.46290430	     12.31715807	      0.66847728	    -13.74469369	     -1.07450177	      1.44272623
      6.37000000	     -1.40699142	     -0.60942070	   -120.69232172	      0.63775175	      1.00987843	      0.47910204	     17.28662256	     -0.70232853	     -7.03582985	    -41.38135408	     12.71690321	      1.15390798	      4.84831784	      0.74159596	     -1.76351371	    -17.59144596	     12.60905163	      0.58725790	    -13.91819126	     -1.01704602	      1.38807912
      6.38000000	     -1.52241047	     -0.63704026	   -121.28606101	      0.63562275	      1.00986158	      0.48248218	     17.59078515	     -0.72703535	     -7.67175569	    -40.31682462	     12.74170351	      0.87035106	      4.51875504	      0.66245615	     -2.28485509	    -17.71707955	     12.89065074	      0.52217661	    -14.08977035	     -0.95177902	      1.33633173
      6.39000000	     -1.63758377	     -0.65505675	   -121.87940964	      0.63346090	      1.00983634	      0.48579997	     17.90012695	     -0.74176031	     -8.34341923	    -39.25771821	     12.72264648	      0.61132977	      4.19219855	      0.58234923	     -2.79897644	    -17.83250387	     13.16271637	      0.47178525	    -14.25405387	     -0.87756397	      1.28564397
      6.40000000	     -1.75778248	     -0.69549596	   -122.46983408	      0.63127331	      1.00986291	      0.48906450	     18.17898518	     -0.76081383	     -9.06216278	    -38.20092880	     12.64163779	      0.30205184	      3.82692902	      0.51750369	     -3.29563953	    -17.92128476	     13.38522951	      0.43667713	    -14.44993509	     -0.81144838	      1.26388679
      6.41000000	     -1.86050889	     -0.66998890	   -123.05555576	      0.62904104	      1.00978617	      0.49224942	     18.52064606	     -0.73538109	     -9.77538185	    -37.14580382	     12.54266058	      0.19598011	      3.53488292	      0.42999557	     -3.80383137	    -18.01462162	     13.64808600	      0.39840933	    -14.57297967	     -0.71825272	      1.21624448
      6.42000000	     -1.97551569	     -0.65659291	   -123.64137407	      0.62675086	      1.00975767	      0.49536970	     18.82920900	     -0.68833959	    -10.51263826	    -36.08220807	     12.38076183	      0.09589159	      3.20564138	      0.33990373	     -4.31379610	    -18.07392442	     13.87556984	      0.36427462	    -14.72254007	     -0.62685252	      1.20489141
      6.43000000	     -2.07620017	     -0.62798669	   -124.22195895	      0.62441873	      1.00970585	      0.49842804	     19.14840877	     -0.62563259	    -11.25420527	    -35.01970119	     12.17662127	      0.07031053	      2.88534533	      0.25372742	     -4.83432371	    -18.10732264	     14.08717814	      0.32876655	    -14.85228801	     -0.53996080	      1.18631430
      6.44000000	     -2.18486787	     -0.61008426	   -124.80314453	      0.62202515	      1.00968943	      0.50143376	     19.43452677	     -0.54199700	    -12.00438002	    -33.95026550	     11.93761925	      0.09474350	      2.52586632	      0.16804571	     -5.36137654	    -18.09624433	     14.27980476	      0.29687428	    -15.00112846	     -0.45779590	      1.19727375
      6.45000000	     -2.26905663	     -0.55911873	   -125.37687331	      0.61958799	      1.00961256	      0.50437808	     19.75142851	     -0.43828708	    -12.74384826	    -32.88336141	     11.63790496	      0.18700995	      2.19781158	      0.08270111	     -5.90174004	    -18.05947441	     14.46695085	      0.26098260	    -15.10455122	     -0.37735301	      1.18828112
      6.46000000	     -2.33215635	     -0.49539660	   -125.94228804	      0.61711400	      1.00950381	      0.50728074	     20.07808656	     -0.32786081	    -13.47620455	    -31.82260782	     11.27242861	      0.30094248	      1.87424415	      0.00858774	     -6.45070592	    -17.98426386	     14.63635594	      0.22435478	    -15.18158706	     -0.30615271	      1.15944733
      6.47000000	     -2.39001911	     -0.44563619	   -126.50254316	      0.61459475	      1.00940505	      0.51018475	     20.37546888	     -0.22085430	    -14.21758148	    -30.76873735	     10.88769389	      0.42402142	      1.51205414	     -0.04796606	     -6.99550802	    -17.85841399	     14.79314454	      0.19289840	    -15.26566495	     -0.24652894	      1.14331094
      6.48000000	     -2.42989534	     -0.39492348	   -127.04729559	      0.61204437	      1.00928222	      0.51306651	     20.66945592	     -0.11921059	    -14.96160122	    -29.72842054	     10.45284759	      0.53460138	      1.14060683	     -0.08643981	     -7.53781729	    -17.68915783	     14.93500006	      0.16655518	    -15.33456674	     -0.20010888	      1.10252625
      6.49000000	     -2.48475020	     -0.37824289	   -127.58248610	      0.60945046	      1.00920072	      0.51599225	     20.90220516	     -0.02696918	    -15.73794173	    -28.70397169	     10.03167530	      0.62566944	      0.69610389	     -0.10827608	     -8.07952715	    -17.46346147	     15.07200725	      0.15830869	    -15.43773660	     -0.15974873	      1.08006034
      6.50000000	     -2.48766196	     -0.33028798	   -128.09405587	      0.60684248	      1.00901553	      0.51892392	     21.18007676	      0.04856195	    -16.49278874	    -27.69952547	      9.55182522	      0.68617482	      0.30124790	     -0.09977277	     -8.59599973	    -17.21371554	     15.19009203	      0.15347579	    -15.46929073	     -0.13317522	      1.00161951
      6.51000000	     -2.51974926	     -0.32944905	   -128.59567503	      0.60416028	      1.00889086	      0.52192369	     21.37148402	      0.11534862	    -17.28835549	    -26.71204597	      9.12193048	      0.70299238	     -0.18604901	     -0.07738724	     -9.11456710	    -16.91248126	     15.30911304	      0.17886433	    -15.55208429	     -0.11173044	      0.95234996
